<svg width="27" height="27" viewBox="0 0 27 27" fill="none" xmlns="http://www.w3.org/2000/svg">
<path d="M13.5 0C6.0561 0 0 6.0561 0 13.5C0 20.9439 6.0561 27 13.5 27C20.9439 27 27 20.9439 27 13.5C27 6.0561 20.9439 0 13.5 0ZM13.5 24.1274C7.64009 24.1274 2.87229 19.3602 2.87229 13.5C2.87229 7.63981 7.64009 2.87257 13.5 2.87257C19.3599 2.87257 24.1277 7.63981 24.1277 13.5C24.1277 19.3602 19.3599 24.1274 13.5 24.1274Z" fill="#21A30C"/>
<path d="M20.5357 13.0832H14.4687V5.78851C14.4687 5.17465 13.971 4.67694 13.3571 4.67694C12.7433 4.67694 12.2456 5.17465 12.2456 5.78851V14.1947C12.2456 14.8086 12.7433 15.3063 13.3571 15.3063H20.5357C21.1495 15.3063 21.6472 14.8086 21.6472 14.1947C21.6472 13.5809 21.1495 13.0832 20.5357 13.0832Z" fill="#21A30C"/>
</svg>
