<svg width="59" height="54" viewBox="0 0 59 54" fill="none" xmlns="http://www.w3.org/2000/svg">
<path d="M59 27C59 12.1127 45.7658 0 29.5 0C13.2342 0 0 12.1127 0 27C0 34.8634 3.69447 41.9511 9.57516 46.8897L9.54727 46.9123L10.5041 47.6506C10.5664 47.6987 10.6339 47.738 10.6962 47.7851C11.2046 48.1709 11.7313 48.5372 12.2677 48.8916C12.4415 49.0065 12.6153 49.1213 12.7923 49.2333C13.3651 49.5946 13.953 49.9372 14.5537 50.2622C14.6846 50.3329 14.8165 50.4016 14.9485 50.4704C15.606 50.813 16.2776 51.136 16.9652 51.4325C17.0156 51.4541 17.0671 51.4738 17.1175 51.4954C19.3584 52.4487 21.7506 53.1488 24.2522 53.5621C24.3177 53.5729 24.3831 53.5837 24.4496 53.5945C25.2263 53.7172 26.0115 53.8154 26.8064 53.8812C26.9029 53.8891 26.9995 53.894 27.0971 53.9018C27.8888 53.9617 28.689 54 29.5 54C30.3035 54 31.0962 53.9617 31.8836 53.9038C31.9834 53.8959 32.0831 53.891 32.1829 53.8832C32.9713 53.8174 33.7501 53.7221 34.5193 53.6014C34.5858 53.5906 34.6534 53.5798 34.7199 53.568C37.1839 53.1635 39.5418 52.4792 41.7538 51.5504C41.8353 51.516 41.9179 51.4836 41.9994 51.4483C42.6613 51.1635 43.3081 50.8562 43.9421 50.5293C44.0998 50.4478 44.2564 50.3653 44.4131 50.2809C44.9902 49.9696 45.5577 49.6447 46.109 49.2991C46.3075 49.1753 46.5017 49.0448 46.698 48.9152C47.1689 48.6049 47.6312 48.2848 48.0807 47.95C48.1805 47.8764 48.2877 47.8126 48.3854 47.737L49.3669 46.9869L49.3379 46.9643C55.2701 42.0238 59 34.9036 59 27ZM2.14545 27C2.14545 13.1947 14.4164 1.96364 29.5 1.96364C44.5836 1.96364 56.8545 13.1947 56.8545 27C56.8545 34.4392 53.2877 41.1274 47.6409 45.7164C47.3255 45.5171 47.008 45.3384 46.6829 45.1892L37.6002 41.0331C36.7849 40.66 36.2786 39.9099 36.2786 39.0764V36.1731C36.4888 35.9355 36.7109 35.6665 36.9404 35.371C38.1161 33.8511 39.0591 32.1604 39.7467 30.3411C41.1058 29.7501 41.9833 28.511 41.9833 27.1119V23.6314C41.9833 22.7801 41.6422 21.9544 41.0318 21.3055V16.7233C41.0876 16.2137 41.285 13.338 39.0119 10.9659C37.0348 8.90018 33.8349 7.85455 29.5 7.85455C25.1651 7.85455 21.9652 8.90018 19.9881 10.9649C17.715 13.337 17.9124 16.2128 17.9682 16.7223V21.3045C17.3589 21.9535 17.0167 22.7792 17.0167 23.6304V27.1109C17.0167 28.1919 17.5466 29.2003 18.4541 29.8807C19.323 32.996 21.1113 35.3543 21.7721 36.1535V38.9949C21.7721 39.796 21.2947 40.5324 20.5256 40.9173L12.0435 45.1519C11.7732 45.2864 11.505 45.4435 11.2368 45.6192C5.65971 41.0321 2.14545 34.3852 2.14545 27ZM45.5469 47.2569C45.1715 47.5063 44.7896 47.7478 44.4023 47.9785C44.2243 48.0845 44.0473 48.1906 43.866 48.2937C43.3596 48.5804 42.8447 48.8533 42.3191 49.1086C42.2032 49.1645 42.0863 49.2176 41.9694 49.2725C40.7615 49.8391 39.5118 50.326 38.2277 50.7217C38.1827 50.7355 38.1376 50.7502 38.0915 50.7639C37.4189 50.9681 36.7377 51.1498 36.049 51.3059C36.0469 51.3059 36.0447 51.3069 36.0426 51.3069C35.3474 51.464 34.6437 51.5945 33.9357 51.7016C33.9164 51.7045 33.8971 51.7084 33.8778 51.7114C33.2116 51.8105 32.5401 51.8822 31.8664 51.9362C31.7474 51.946 31.6283 51.9529 31.5081 51.9608C30.842 52.0069 30.1726 52.0364 29.5 52.0364C28.8199 52.0364 28.1419 52.0059 27.4672 51.9598C27.3503 51.9519 27.2333 51.9451 27.1175 51.9352C26.4374 51.8803 25.7605 51.8066 25.09 51.7065C25.06 51.7016 25.0299 51.6967 24.9999 51.6917C23.5818 51.4748 22.1861 51.1557 20.827 50.7384C20.7852 50.7256 20.7423 50.7119 20.7004 50.6991C20.0257 50.489 19.3584 50.2563 18.703 49.9991C18.6987 49.9971 18.6933 49.9952 18.6891 49.9932C18.069 49.7487 17.4608 49.4777 16.8601 49.192C16.7817 49.1547 16.7024 49.1194 16.6251 49.0811C16.077 48.8131 15.5406 48.5234 15.0117 48.221C14.8551 48.1307 14.6996 48.0394 14.5451 47.9471C14.0581 47.6555 13.5775 47.3521 13.1098 47.0311C13.0615 46.9977 13.0154 46.9623 12.9671 46.9289C13.0015 46.9113 13.0358 46.8936 13.0701 46.8759L21.5522 42.6413C23.0111 41.9128 23.9175 40.5157 23.9175 38.9949L23.9165 35.4584L23.6697 35.1854C23.6461 35.1609 21.3269 32.5787 20.4505 29.0824L20.3529 28.6936L19.9871 28.4767C19.4711 28.1713 19.1621 27.6608 19.1621 27.11V23.6294C19.1621 23.1729 19.3735 22.7477 19.7596 22.4287L20.1136 22.1361V16.6673L20.104 16.5387C20.1008 16.5152 19.7843 14.1539 21.6015 12.258C23.1527 10.64 25.8109 9.81818 29.5 9.81818C33.1752 9.81818 35.8248 10.6331 37.3803 12.2393C39.1953 14.1156 38.8982 16.5211 38.896 16.5407L38.8864 22.138L39.2404 22.4306C39.6255 22.7487 39.8379 23.1748 39.8379 23.6314V27.1119C39.8379 27.812 39.3176 28.4472 38.571 28.6583L38.0378 28.8085L37.8662 29.2945C37.2333 31.0942 36.3322 32.7564 35.1887 34.235C34.9076 34.5983 34.6341 34.9203 34.3991 35.1668L34.1331 35.4446V39.0764C34.1331 40.6591 35.0943 42.0827 36.6411 42.7896L45.7239 46.9456C45.7819 46.9721 45.8387 46.9996 45.8956 47.0271C45.7808 47.1067 45.6628 47.1803 45.5469 47.2569Z" fill="white"/>
</svg>
